<?xml version="1.0" encoding="UTF-8" standalone="no"?>
<!-- Created with Inkscape (http://www.inkscape.org/) -->

<svg
   xmlns:dc="http://purl.org/dc/elements/1.1/"
   xmlns:cc="http://creativecommons.org/ns#"
   xmlns:rdf="http://www.w3.org/1999/02/22-rdf-syntax-ns#"
   xmlns:svg="http://www.w3.org/2000/svg"
   xmlns="http://www.w3.org/2000/svg"
   xmlns:sodipodi="http://sodipodi.sourceforge.net/DTD/sodipodi-0.dtd"
   xmlns:inkscape="http://www.inkscape.org/namespaces/inkscape"
   width="30"
   height="30"
   id="svg2"
   version="1.1"
   inkscape:version="0.48.4 r9939"
   sodipodi:docname="_logo.svg">
  <defs
     id="defs4" />
  <sodipodi:namedview
     id="base"
     pagecolor="#ffffff"
     bordercolor="#666666"
     borderopacity="1.0"
     inkscape:pageopacity="0.0"
     inkscape:pageshadow="2"
     inkscape:zoom="5.6568542"
     inkscape:cx="13.195806"
     inkscape:cy="15.172836"
     inkscape:document-units="px"
     inkscape:current-layer="text2987"
     showgrid="false"
     inkscape:window-width="1366"
     inkscape:window-height="714"
     inkscape:window-x="0"
     inkscape:window-y="25"
     inkscape:window-maximized="1" />
  <metadata
     id="metadata7">
    <rdf:RDF>
      <cc:Work
         rdf:about="">
        <dc:format>image/svg+xml</dc:format>
        <dc:type
           rdf:resource="http://purl.org/dc/dcmitype/StillImage" />
        <dc:title></dc:title>
      </cc:Work>
    </rdf:RDF>
  </metadata>
  <g
     inkscape:label="Layer 1"
     inkscape:groupmode="layer"
     id="layer1"
     transform="translate(0,-1022.3622)">
    <path
       transform="matrix(0.96774194,0,0,0.96774194,78.387097,989.45897)"
       style="fill:#008033;fill-opacity:1;stroke:none"
       d="M -50,49.5 C -50,58.060414 -56.939586,65 -65.5,65 -74.060414,65 -81,58.060414 -81,49.5 -81,40.939586 -74.060414,34 -65.5,34 c 8.560414,0 15.5,6.939586 15.5,15.5 z"
       id="path2985" />
    <g
       style="font-size:18px;font-style:normal;font-variant:normal;font-weight:bold;font-stretch:normal;text-align:start;line-height:861.99998856%;letter-spacing:0px;word-spacing:0px;writing-mode:lr-tb;text-anchor:start;fill:#ffffff;fill-opacity:1;stroke:none;font-family:Fira Sans;-inkscape-font-specification:Fira Sans Bold"
       id="text2987">
      <path
         d="m 6.0989322,1030.9722 0,12.474 2.952,0 0,-4.158 1.3499998,0 c 2.879997,0 4.932,-1.35 4.932,-4.248 0,-2.736 -1.980003,-4.068 -5.202,-4.068 l -4.0319998,0 m 2.952,6.192 0,-4.086 1.0439998,0 c 1.457999,0 2.196,0.63 2.196,1.962 0,1.566 -0.810001,2.124 -2.142,2.124 l -1.0979998,0"
         style="fill:#ffffff;font-family:Fira Sans;-inkscape-font-specification:Fira Sans Bold"
         id="path3011" />
      <path
         d="m 20.625068,1033.5822 c -2.861997,0 -4.68,2.124 -4.68,5.166 0,3.024 1.800003,5.004 4.734,5.004 1.313999,0 2.340001,-0.432 3.222,-1.134 l -1.296,-1.818 c -0.629999,0.486 -1.098001,0.702 -1.782,0.702 -1.133999,0 -1.89,-0.648 -1.89,-2.772 0,-2.142 0.702001,-2.97 1.926,-2.97 0.647999,0 1.206001,0.216 1.8,0.702 l 1.242,-1.71 c -0.917999,-0.774 -1.944001,-1.17 -3.276,-1.17"
         style="fill:#ffffff;font-family:Fira Sans;-inkscape-font-specification:Fira Sans Bold"
         id="path3013" />
    </g>
  </g>
</svg>
